<svg width="177" height="177" viewBox="0 0 177 177" fill="none" xmlns="http://www.w3.org/2000/svg">
<rect width="177" height="177" fill="#E5E5E5"/>
<rect width="177" height="177" fill="white"/>
<rect width="128" height="128" rx="10" fill="#D6D6D6"/>
<rect x="24" y="25" width="128" height="128" rx="10" fill="#969696"/>
<rect x="49" y="49" width="128" height="128" rx="10" fill="black"/>
<path d="M128.537 91.7495C128.537 101.639 125.535 109.005 119.531 113.849C113.527 118.642 105.151 121.039 94.4038 121.039H77.375V161H61.7085V62.2329H94.2524C105.1 62.2329 113.527 64.7305 119.531 69.7256C125.535 74.6702 128.537 82.0116 128.537 91.7495ZM112.871 91.5225C112.871 86.4769 111.206 82.6927 107.875 80.1699C104.596 77.6471 100.105 76.3857 94.4038 76.3857H77.375V106.886H94.4038C100.105 106.886 104.596 105.625 107.875 103.102C111.206 100.579 112.871 96.7194 112.871 91.5225Z" fill="white"/>
<path d="M85.9609 156.078C85.9609 154.932 86.2474 153.975 86.8203 153.207C87.3932 152.426 88.1419 151.814 89.0664 151.371C90.0039 150.915 91.0716 150.59 92.2695 150.395C93.4805 150.186 94.7109 150.082 95.9609 150.082C96.4427 150.082 96.8724 150.089 97.25 150.102C97.6406 150.115 98.0052 150.134 98.3438 150.16C98.6953 150.186 99.0469 150.219 99.3984 150.258C99.75 150.297 100.134 150.342 100.551 150.395V149.086C100.551 148.201 100.355 147.471 99.9648 146.898C99.5872 146.326 99.1185 145.876 98.5586 145.551C97.9987 145.212 97.4128 144.978 96.8008 144.848C96.1888 144.704 95.668 144.633 95.2383 144.633C93.8841 144.633 92.6341 144.815 91.4883 145.18C90.3424 145.544 89.2747 146.033 88.2852 146.645L87.0742 144.633C88.168 143.969 89.3919 143.428 90.7461 143.012C92.1133 142.582 93.6107 142.367 95.2383 142.367C96.2279 142.367 97.1979 142.497 98.1484 142.758C99.112 143.005 99.9714 143.396 100.727 143.93C101.495 144.451 102.107 145.141 102.562 146C103.018 146.859 103.246 147.888 103.246 149.086V161H100.551V157.953C100.082 158.539 99.5482 159.053 98.9492 159.496C98.3633 159.939 97.7448 160.303 97.0938 160.59C96.4427 160.863 95.7917 161.072 95.1406 161.215C94.4896 161.371 93.8711 161.449 93.2852 161.449C90.8763 161.449 89.0534 160.987 87.8164 160.062C86.5794 159.138 85.9609 157.81 85.9609 156.078ZM93.2852 159.164C94.4049 159.164 95.4076 159.001 96.293 158.676C97.1914 158.337 97.9531 157.921 98.5781 157.426C99.2031 156.931 99.6849 156.404 100.023 155.844C100.375 155.284 100.551 154.776 100.551 154.32V152.602C99.6784 152.471 98.8385 152.4 98.0312 152.387C97.237 152.374 96.5469 152.367 95.9609 152.367C94.9974 152.367 94.0664 152.432 93.168 152.562C92.2826 152.693 91.5078 152.908 90.8438 153.207C90.1797 153.493 89.6458 153.871 89.2422 154.34C88.8385 154.809 88.6367 155.388 88.6367 156.078C88.6367 156.846 89.0078 157.556 89.75 158.207C90.5052 158.845 91.6836 159.164 93.2852 159.164ZM125.082 160.805C125.082 162.055 124.867 163.168 124.438 164.145C124.008 165.121 123.402 165.948 122.621 166.625C121.853 167.302 120.941 167.816 119.887 168.168C118.845 168.533 117.68 168.715 116.391 168.715C114.581 168.715 113.038 168.376 111.762 167.699C110.499 167.022 109.405 166.046 108.48 164.77L110.355 163.324C110.915 164.171 111.723 164.88 112.777 165.453C113.832 166.026 115.036 166.312 116.391 166.312C118.24 166.312 119.698 165.844 120.766 164.906C121.846 163.982 122.387 162.641 122.387 160.883V158.93C120.798 160.336 118.988 161.039 116.957 161.039C114.105 161.039 111.866 160.225 110.238 158.598C108.611 156.97 107.797 154.743 107.797 151.918C107.797 150.538 108.005 149.268 108.422 148.109C108.852 146.938 109.457 145.928 110.238 145.082C111.033 144.223 111.996 143.559 113.129 143.09C114.262 142.608 115.538 142.367 116.957 142.367C117.947 142.367 118.904 142.543 119.828 142.895C120.766 143.233 121.618 143.747 122.387 144.438V142.797H125.082V160.805ZM122.387 147.035C121.618 146.189 120.772 145.577 119.848 145.199C118.936 144.822 117.973 144.633 116.957 144.633C115.889 144.633 114.945 144.822 114.125 145.199C113.318 145.577 112.647 146.091 112.113 146.742C111.579 147.393 111.169 148.168 110.883 149.066C110.609 149.952 110.473 150.902 110.473 151.918C110.473 154.001 111.013 155.661 112.094 156.898C113.174 158.135 114.796 158.754 116.957 158.754C117.973 158.754 118.936 158.565 119.848 158.188C120.772 157.797 121.618 157.172 122.387 156.312V147.035ZM132.348 152.836C132.543 154.763 133.246 156.299 134.457 157.445C135.668 158.591 137.243 159.164 139.184 159.164C140.551 159.164 141.768 158.884 142.836 158.324C143.904 157.764 144.704 157.068 145.238 156.234L147.113 157.523C146.202 158.799 145.115 159.776 143.852 160.453C142.589 161.117 141.033 161.449 139.184 161.449C137.777 161.449 136.488 161.215 135.316 160.746C134.145 160.277 133.129 159.626 132.27 158.793C131.423 157.947 130.766 156.944 130.297 155.785C129.828 154.626 129.594 153.337 129.594 151.918C129.594 150.538 129.802 149.268 130.219 148.109C130.648 146.938 131.26 145.928 132.055 145.082C132.862 144.223 133.839 143.559 134.984 143.09C136.13 142.608 137.413 142.367 138.832 142.367C140.382 142.367 141.736 142.628 142.895 143.148C144.053 143.669 145.017 144.392 145.785 145.316C146.566 146.228 147.139 147.322 147.504 148.598C147.882 149.874 148.07 151.286 148.07 152.836H132.348ZM145.238 150.551C144.939 148.559 144.216 147.074 143.07 146.098C141.924 145.121 140.512 144.633 138.832 144.633C137.973 144.633 137.178 144.776 136.449 145.062C135.72 145.336 135.076 145.733 134.516 146.254C133.956 146.775 133.487 147.406 133.109 148.148C132.732 148.878 132.491 149.678 132.387 150.551H145.238ZM168.715 145.355C167.751 144.874 166.605 144.633 165.277 144.633C164.184 144.633 163.207 144.867 162.348 145.336C161.488 145.805 160.759 146.423 160.16 147.191C159.561 147.947 159.099 148.819 158.773 149.809C158.461 150.785 158.305 151.794 158.305 152.836V158.715H162.426V161H151.508V158.715H155.629V145.082H151.508V142.797H158.305V147.367C159.529 144.034 161.853 142.367 165.277 142.367C166.202 142.367 167.003 142.426 167.68 142.543C168.37 142.66 169.008 142.868 169.594 143.168L168.715 145.355Z" fill="white"/>
</svg>
